<svg xmlns="http://www.w3.org/2000/svg" xmlns:xlink="http://www.w3.org/1999/xlink" width="579" height="600" viewBox="0 0 579 600">
  <defs>
    <clipPath id="clip-path">
      <rect id="Rectangle_2406" data-name="Rectangle 2406" width="478.238" height="500" fill="#8fc2ec"/>
    </clipPath>
    <clipPath id="clip-path-2">
      <rect id="Rectangle_2380" data-name="Rectangle 2380" width="478.238" height="500" fill="#a8bcdd"/>
    </clipPath>
    <clipPath id="clip-path-3">
      <rect id="Rectangle_2405" data-name="Rectangle 2405" width="478.238" height="500" fill="none"/>
    </clipPath>
    <clipPath id="clip-path-4">
      <rect id="Rectangle_2400" data-name="Rectangle 2400" width="37.403" height="26.335" fill="none"/>
    </clipPath>
    <clipPath id="clip-path-5">
      <rect id="Rectangle_2401" data-name="Rectangle 2401" width="6.718" height="18.274" fill="none"/>
    </clipPath>
    <clipPath id="clip-path-6">
      <rect id="Rectangle_2402" data-name="Rectangle 2402" width="17.443" height="11.735" fill="none"/>
    </clipPath>
    <clipPath id="clip-path-7">
      <rect id="Rectangle_2403" data-name="Rectangle 2403" width="147.668" height="178.251" fill="none"/>
    </clipPath>
    <clipPath id="clip-Sign_Up_1">
      <rect width="579" height="600"/>
    </clipPath>
  </defs>
  <g id="Sign_Up_1" data-name="Sign Up – 1" clip-path="url(#clip-Sign_Up_1)">
    <g id="Group_10082" data-name="Group 10082" transform="translate(50 50)">
      <g id="Group_10081" data-name="Group 10081" clip-path="url(#clip-path)">
        <g id="Group_10066" data-name="Group 10066">
          <g id="Group_10065" data-name="Group 10065" opacity="0.35" clip-path="url(#clip-path-2)">
            <path id="Path_23540" data-name="Path 23540" d="M326.806,277.389A135.916,135.916,0,1,1,190.89,141.473,135.917,135.917,0,0,1,326.806,277.389" transform="translate(5.692 14.649)" fill="#a8bcdd"/>
            <path id="Path_23541" data-name="Path 23541" d="M326.806,277.389A135.916,135.916,0,1,1,190.89,141.473,135.917,135.917,0,0,1,326.806,277.389" transform="translate(5.692 14.649)" fill="#a8bcdd"/>
          </g>
        </g>
        <rect id="Rectangle_2381" data-name="Rectangle 2381" width="99.958" height="158.35" transform="translate(359.307 96.537)" fill="#9fbbea"/>
        <rect id="Rectangle_2382" data-name="Rectangle 2382" width="83.715" height="142.515" transform="translate(367.428 104.454)" fill="#fff"/>
        <rect id="Rectangle_2383" data-name="Rectangle 2383" width="109.085" height="5.796" transform="translate(353.918 92.798)" fill="#3c7ae0"/>
        <rect id="Rectangle_2384" data-name="Rectangle 2384" width="109.085" height="5.796" transform="translate(353.918 101.792)" fill="#3c7ae0"/>
        <rect id="Rectangle_2385" data-name="Rectangle 2385" width="109.085" height="5.796" transform="translate(353.918 110.786)" fill="#3c7ae0"/>
        <rect id="Rectangle_2386" data-name="Rectangle 2386" width="109.085" height="5.796" transform="translate(353.918 119.779)" fill="#3c7ae0"/>
        <rect id="Rectangle_2387" data-name="Rectangle 2387" width="109.085" height="5.796" transform="translate(353.918 128.772)" fill="#3c7ae0"/>
        <rect id="Rectangle_2388" data-name="Rectangle 2388" width="109.085" height="5.796" transform="translate(353.918 137.766)" fill="#3c7ae0"/>
        <rect id="Rectangle_2389" data-name="Rectangle 2389" width="109.085" height="5.796" transform="translate(353.918 146.76)" fill="#3c7ae0"/>
        <rect id="Rectangle_2390" data-name="Rectangle 2390" width="109.085" height="5.796" transform="translate(353.918 155.754)" fill="#3c7ae0"/>
        <rect id="Rectangle_2391" data-name="Rectangle 2391" width="109.085" height="5.796" transform="translate(353.918 164.747)" fill="#3c7ae0"/>
        <line id="Line_1687" data-name="Line 1687" y2="105.017" transform="translate(463.003 92.798)" fill="none" stroke="#91bdff" stroke-miterlimit="10" stroke-width="1"/>
        <rect id="Rectangle_2392" data-name="Rectangle 2392" width="4.058" height="10.227" transform="translate(460.974 196.495)" fill="#8fc2ec"/>
        <rect id="Rectangle_2393" data-name="Rectangle 2393" width="9.758" height="35.067" transform="translate(371.849 211.947)" fill="#91addb"/>
        <rect id="Rectangle_2394" data-name="Rectangle 2394" width="8.767" height="29.502" transform="translate(406.988 217.512)" fill="#91addb"/>
        <rect id="Rectangle_2395" data-name="Rectangle 2395" width="8.767" height="23.603" transform="translate(418.88 223.411)" fill="#91addb"/>
        <rect id="Rectangle_2396" data-name="Rectangle 2396" width="15.76" height="43.44" transform="translate(385.8 203.574)" fill="#91addb"/>
        <rect id="Rectangle_2397" data-name="Rectangle 2397" width="15.76" height="43.44" transform="translate(430.637 203.574)" fill="#91addb"/>
        <path id="Path_23542" data-name="Path 23542" d="M28.817,425.523,0,441.746H477.88l-28.817-16.223Z" transform="translate(0 44.06)" fill="#c6dafa"/>
        <rect id="Rectangle_2398" data-name="Rectangle 2398" width="477.079" height="14.195" transform="translate(0 485.805)" fill="#749cdd"/>
        <g id="Group_10080" data-name="Group 10080">
          <g id="Group_10079" data-name="Group 10079" clip-path="url(#clip-path-3)">
            <path id="Path_23543" data-name="Path 23543" d="M384.515,379.886c21.723,0,35.042,4.15,35.867,4.414a2.661,2.661,0,1,1-1.623,5.067c-.417-.131-29.9-9.209-72.568.066a2.661,2.661,0,1,1-1.13-5.2,185.83,185.83,0,0,1,39.454-4.348" transform="translate(35.512 39.335)" fill="#3763a6"/>
            <path id="Path_23544" data-name="Path 23544" d="M371.026,369.8c.382-.732,7.776-27.049,3.868-27.411s-2.177,2.031-4.313,3.8-6.632-24.6-8.707-19.908,1.78,10.335-1.19,9.066-8.313-25.663-12.119-23.364,1.7,10.85-1.521,11.127-20.953-7.856-23.247,3.147,22.013,12.787,24.437,15.819-12.079,4.41-4.85,7.155,19.471,6.284,14.941,7.421c-.965.242-14.066-5.059-13.388,4.331.328,4.548,26.089,8.812,26.089,8.812" transform="translate(33.511 32.289)" fill="#2ba167"/>
            <path id="Path_23545" data-name="Path 23545" d="M368.859,370.779s-4.442-34.958-23.705-40.163" transform="translate(35.738 34.233)" fill="none" stroke="#1d402f" stroke-linecap="round" stroke-miterlimit="10" stroke-width="1"/>
            <path id="Path_23546" data-name="Path 23546" d="M419.472,386.068c0,2.782-16.566,5.037-37,5.037s-37-2.255-37-5.037,16.566-5.037,37-5.037,37,2.255,37,5.037" transform="translate(35.771 39.453)" fill="#1d402f"/>
            <path id="Path_23547" data-name="Path 23547" d="M379.9,390.343c.7-.436,20.474-19.311,17.3-21.615s-2.909.639-5.649,1.076,6.828-24.546,2.652-21.565-3.734,9.8-5.642,7.193,5.924-26.316,1.478-26.279-4.069,10.2-6.979,8.8-14.025-17.436-21.606-9.137,12.426,22.219,12.966,26.063-12.64-2.362-7.82,3.685,13.553,15.329,9.074,14c-.952-.283-9.525-11.52-13.727-3.094-2.035,4.081,17.958,20.876,17.958,20.876" transform="translate(37.249 33.801)" fill="#2ba167"/>
            <path id="Path_23548" data-name="Path 23548" d="M376.681,396.574s14.024-37.89.1-52.184" transform="translate(39.003 35.659)" fill="none" stroke="#1d402f" stroke-linecap="round" stroke-miterlimit="10" stroke-width="1"/>
            <path id="Path_23549" data-name="Path 23549" d="M384.014,399.583c-.238-.79-2.567-28.026,1.341-27.649s1.757,2.4,3.522,4.544S400,353.56,401.163,358.557s-3.687,9.818-.532,9.127,12.978-23.648,16.285-20.678-3.7,10.34-.593,11.216,22.055-3.788,22.244,7.45S414.547,374.1,411.6,376.629s11.038,6.6,3.422,7.938-20.3,2.522-16.068,4.488c.9.418,14.765-2.332,12.339,6.765-1.175,4.406-27.279,3.763-27.279,3.763" transform="translate(39.668 35.903)" fill="#2ba167"/>
            <path id="Path_23550" data-name="Path 23550" d="M380.074,404.678s14.566-37.686,34.463-39.187" transform="translate(39.354 37.844)" fill="none" stroke="#1d402f" stroke-linecap="round" stroke-miterlimit="10" stroke-width="1"/>
            <path id="Path_23551" data-name="Path 23551" d="M386.842,371.131c-.361-.743-7.02-27.254-3.1-27.507s2.119,2.09,4.2,3.923,7.314-24.407,9.258-19.66-2.067,10.282.937,9.1,9.025-25.42,12.766-23.017-2,10.8,1.21,11.165,21.164-7.27,23.15,3.793S412.9,341.094,410.4,344.057s11.951,4.744,4.649,7.288-19.64,5.74-15.143,7c.958.268,14.2-4.665,13.262,4.7-.455,4.538-26.324,8.082-26.324,8.082" transform="translate(39.606 32.492)" fill="#2ba167"/>
            <path id="Path_23552" data-name="Path 23552" d="M383.65,376.81s8.344-39.531,27.745-44.2" transform="translate(39.724 34.44)" fill="none" stroke="#1d402f" stroke-linecap="round" stroke-miterlimit="10" stroke-width="1"/>
            <path id="Path_23553" data-name="Path 23553" d="M378.037,395.776c.262-.784,3.394-27.938-.522-27.678s-1.829,2.351-3.656,4.44S363.415,349.3,362.11,354.26s3.395,9.922.262,9.138S350.1,339.378,346.7,342.249s3.394,10.444.26,11.227-21.933-4.438-22.455,6.789,23.76,9.138,26.633,11.749-11.227,6.267-3.655,7.834,20.22,3.121,15.927,4.96c-.914.392-14.689-2.767-12.533,6.4,1.044,4.44,27.155,4.57,27.155,4.57" transform="translate(33.6 35.412)" fill="#2ba167"/>
            <path id="Path_23554" data-name="Path 23554" d="M376.28,396.7s-9.922-33.814-29.767-35.9" transform="translate(35.879 37.358)" fill="none" stroke="#1d402f" stroke-linecap="round" stroke-miterlimit="10" stroke-width="1"/>
            <path id="Path_23555" data-name="Path 23555" d="M406.053,437.173l-1.618.382a105.106,105.106,0,0,1-45.792.382l-13.223-52.219a171.169,171.169,0,0,0,71.567.515l2.474-.515Z" transform="translate(35.766 39.938)" fill="#3763a6"/>
            <path id="Path_23556" data-name="Path 23556" d="M347.12,392.424a137.86,137.86,0,0,0,33.286,3.694A185.535,185.535,0,0,0,417.73,392.2l1.482-5.685a2.568,2.568,0,0,0-.482.054c-42.666,9.275-72.151.2-72.568.066a2.623,2.623,0,0,0-.535-.11Z" transform="translate(35.787 40.021)" fill="#24416e"/>
            <path id="Path_23557" data-name="Path 23557" d="M380.682,394.035c-21.723,0-35.042-4.15-35.867-4.414a2.661,2.661,0,1,1,1.623-5.067c.417.131,29.9,9.209,72.567-.066a2.661,2.661,0,1,1,1.131,5.2,185.9,185.9,0,0,1-39.454,4.347" transform="translate(35.512 39.805)" fill="#3763a6"/>
            <path id="Path_23558" data-name="Path 23558" d="M281.7,430.294,59.035,436.026,4.153,284.184l222.669-5.732Z" transform="translate(0.43 28.832)" fill="#424242"/>
            <path id="Path_23559" data-name="Path 23559" d="M380.6,428.155l-222.669,5.732L53.878,421.474l222.669-5.733Z" transform="translate(5.579 43.047)" fill="#333"/>
            <path id="Path_23560" data-name="Path 23560" d="M269.661,420.8,64.887,426.072,16.078,290.932l204.775-5.272Z" transform="translate(1.665 29.578)" fill="#4a87e8"/>
            <path id="Path_23561" data-name="Path 23561" d="M53.878,420.936,157.931,433.35l.322,12.511L54.6,431.762Z" transform="translate(5.579 43.585)" fill="#1a1a1a"/>
            <path id="Path_23562" data-name="Path 23562" d="M148.168,432.722l222.669-5.732.242,9.383-222.588,8.86Z" transform="translate(15.342 44.212)"/>
            <path id="Path_23563" data-name="Path 23563" d="M215.926,290.3l47.2,130.671,6.54-.168L220.852,285.66,16.079,290.932l1.613,4.468Z" transform="translate(1.665 29.578)" fill="#122138"/>
            <path id="Path_23564" data-name="Path 23564" d="M4.28,283.646l-1.352,1.786L59.879,445.977l-.726-10.826Z" transform="translate(0.303 29.37)"/>
            <path id="Path_23565" data-name="Path 23565" d="M254.307,425.968l-52.386,1.349-24.481-2.92,52.387-1.349Z" transform="translate(18.373 43.804)" fill="#424242"/>
            <line id="Line_1688" data-name="Line 1688" y2="100.059" transform="translate(282.131 0.551)" fill="none" stroke="#424242" stroke-linecap="round" stroke-miterlimit="10" stroke-width="1"/>
            <path id="Path_23566" data-name="Path 23566" d="M221.877,142.769h76.6L259.466,99.837Z" transform="translate(22.974 10.337)" fill="#6691d9"/>
            <rect id="Rectangle_2399" data-name="Rectangle 2399" width="18.913" height="27.99" transform="translate(273.315 94.099)" fill="#6691d9"/>
            <path id="Path_23567" data-name="Path 23567" d="M247.943,109.306l18.889.142-21.8,3.191Z" transform="translate(25.372 11.318)" fill="#3763a6"/>
            <path id="Path_23568" data-name="Path 23568" d="M177.05,123.242s7.928,35.889-4.639,32.054-13.68-32.587-13.68-32.587Z" transform="translate(16.436 12.706)" fill="#1a1a1a"/>
            <path id="Path_23569" data-name="Path 23569" d="M190.067,302.171c4.738,15.4,10.091,29.766,15.024,37.944,6.874,21.048,15.727,24.9,15.727,24.9l15.745-5.717c2.482-1.022,2.7-5.422,2.09-7.847L224.5,278.93l-.232.087" transform="translate(19.68 28.881)" fill="#fcbc76"/>
            <path id="Path_23570" data-name="Path 23570" d="M225.7,285.207l-21.058-65.388c-40.422-6.519-25.833,37.056-25.833,37.056,2.071,12.485,6.925,32.748,12.69,51.486" transform="translate(18.249 22.692)" fill="#fff"/>
            <path id="Path_23571" data-name="Path 23571" d="M231.568,277.355s-28.037-5.17-41.129,15.275l5.889,15.448,1.834.063a61.7,61.7,0,0,0,37.758-11.294Z" transform="translate(19.719 28.658)" fill="#fff"/>
            <path id="Path_23572" data-name="Path 23572" d="M228.4,282.67a40.05,40.05,0,0,1-15.212,8.272c-9.831,3.015-20.548,3.042-19.791.67s1.251-1.545,1.251-1.545l1.486,2.488s21.04-1.909,30.339-9.569l-.544-3.578s1.77.14,2.471,3.261" transform="translate(20.021 28.931)" fill="#adadad"/>
            <path id="Path_23573" data-name="Path 23573" d="M87.358,220.325l67.9-18.441,58.587,19.841Z" transform="translate(9.045 20.904)" fill="#fff"/>
            <path id="Path_23574" data-name="Path 23574" d="M218.088,430.126l-.265-39.213,2.057-63.852c1.718-24.066-3.049-86.441-16.327-106.586L170.272,208.85l-3.4,5.795-5.445,3.387L136.6,206.508,90.425,219.167,101.794,433.12Z" transform="translate(9.363 21.382)" fill="#fff"/>
            <path id="Path_23575" data-name="Path 23575" d="M157.373,220.949q2.6,13.312,4.863,26.69c1.424,8.93,2.727,17.879,3.977,26.836,2.445,17.925,4.271,35.927,5.943,53.944,1.326,18.046,2.431,36.118,2.805,54.216,0,9.055.187,18.1-.12,27.15-.2,9.048-.183,10.788-.742,19.805l-.586.014c.742-18.053.332-28.858-.217-46.916q-1.036-27.079-3.276-54.094-2.266-27-5.467-53.92c-2.152-17.938-4.55-35.851-7.392-53.692Z" transform="translate(16.273 22.878)" fill="#adadad"/>
            <path id="Path_23576" data-name="Path 23576" d="M151.506,228.1a2.2,2.2,0,0,1-2.186-2.107,2.143,2.143,0,0,1,.616-1.536,2.221,2.221,0,0,1,3.027-.056,2.129,2.129,0,0,1,.65,1.513,2.071,2.071,0,0,1-.595,1.513,2.143,2.143,0,0,1-1.512.673" transform="translate(15.461 23.176)" fill="#adadad"/>
            <path id="Path_23577" data-name="Path 23577" d="M167.609,404.545a2.236,2.236,0,1,1,.021,0Zm-3.346-38.158h0a2.148,2.148,0,1,1,2.249,2.019.078.078,0,0,1-.064.022,2.155,2.155,0,0,1-2.185-2.042M161.816,330.4h0a2.152,2.152,0,1,1,2.312,1.954l-.128,0a2.154,2.154,0,0,1-2.184-1.957m-3.455-35.923a2.163,2.163,0,0,1,1.91-2.377,2.145,2.145,0,0,1,.466,4.265.615.615,0,0,1-.193.024,2.163,2.163,0,0,1-2.183-1.912m-4.312-35.843h0a2.167,2.167,0,0,1,1.865-2.419,2.15,2.15,0,0,1,.552,4.264l-.257,0a2.135,2.135,0,0,1-2.16-1.85" transform="translate(15.949 26.528)" fill="#adadad"/>
            <path id="Path_23578" data-name="Path 23578" d="M141.007,224.221l-7.7-12.767-4.9-41.637,25.933-7.363,13.54,56.563c1.248,9.484-19.606,11.426-26.87,5.2" transform="translate(13.295 16.821)" fill="#fcbc76"/>
            <path id="Path_23579" data-name="Path 23579" d="M158.372,204.435a15.394,15.394,0,0,0,5.491-1.951l-9.527-40.029L128.4,169.818l2.314,19.665.571.9L146.751,201.5a15.936,15.936,0,0,0,11.621,2.935" transform="translate(13.295 16.821)" fill="#e3923c"/>
            <path id="Path_23580" data-name="Path 23580" d="M164.41,206.425h0c7.194-.647,13.12-6.268,14.691-13.936l4.7-22.918a27.252,27.252,0,0,0,.228-9.716c-1.883-11.961-4.472-24.766-7.193-31.547l-.411-3.286c-4.982-12.416-16.942-12.508-29.238-11.4-13.5,1.216-17.72,11.471-19.148,26.156l-7.568,7.57a32.736,32.736,0,0,0,3.969,19.1l11.275,21.808a9.17,9.17,0,0,0,2.483,3l14.768,11.6a15.931,15.931,0,0,0,11.443,3.571" transform="translate(12.458 11.719)" fill="#fcbc76"/>
            <path id="Path_23581" data-name="Path 23581" d="M127.718,171.478s5.163-23.808,3.46-33.683c0,0,47.157,12.578,51.565-10.742,0,0,4.934-16.075-11.679-15.933-17.039.146-53.456-4.725-52.808,24.566.83,37.5,9.462,35.792,9.462,35.792" transform="translate(12.244 11.483)" fill="#1a1a1a"/>
            <path id="Path_23582" data-name="Path 23582" d="M133.777,160.008c3.268,4.607,3.05,10.374-.484,12.882s-9.049.8-12.317-3.805-3.05-10.376.484-12.882,9.049-.8,12.317,3.805" transform="translate(12.287 16.054)" fill="#fcbc76"/>
            <g id="Group_10069" data-name="Group 10069" transform="translate(136.136 230.483)" opacity="0.67" style="mix-blend-mode: multiply;isolation: isolate">
              <g id="Group_10068" data-name="Group 10068">
                <g id="Group_10067" data-name="Group 10067" clip-path="url(#clip-path-4)">
                  <path id="Path_23583" data-name="Path 23583" d="M123.363,208.858l23.119,26.334,14.284-12.973Z" transform="translate(-123.363 -208.857)" fill="#707070"/>
                </g>
              </g>
            </g>
            <g id="Group_10072" data-name="Group 10072" transform="translate(182.202 232.061)" opacity="0.67" style="mix-blend-mode: multiply;isolation: isolate">
              <g id="Group_10071" data-name="Group 10071">
                <g id="Group_10070" data-name="Group 10070" clip-path="url(#clip-path-5)">
                  <path id="Path_23584" data-name="Path 23584" d="M171.825,210.287l-6.718,18.2,3.366.077Z" transform="translate(-165.106 -210.287)" fill="#707070"/>
                </g>
              </g>
            </g>
            <g id="Group_10075" data-name="Group 10075" transform="translate(165.501 243.843)" opacity="0.67" style="mix-blend-mode: multiply;isolation: isolate">
              <g id="Group_10074" data-name="Group 10074">
                <g id="Group_10073" data-name="Group 10073" clip-path="url(#clip-path-6)">
                  <path id="Path_23585" data-name="Path 23585" d="M158.011,220.965,149.972,232.7l8.878-8.736,8.565,4.988Z" transform="translate(-149.972 -220.964)" fill="#707070"/>
                </g>
              </g>
            </g>
            <path id="Path_23586" data-name="Path 23586" d="M161.022,200.745l5.159.115-3.387,8.779Z" transform="translate(16.673 20.786)" fill="#adadad"/>
            <path id="Path_23587" data-name="Path 23587" d="M166.57,200.85l6.067,10.414-5.722,19.948-9.658-8.164Z" transform="translate(16.283 20.797)" fill="#fff"/>
            <path id="Path_23588" data-name="Path 23588" d="M132.429,198.7l-5.254.077c.6.359,5.642,3.95,5.642,3.95Z" transform="translate(13.168 20.574)" fill="#adadad"/>
            <path id="Path_23589" data-name="Path 23589" d="M127.591,198.77l-4.429,11.343L152.748,235l8.039-11.734-27.888-20.8" transform="translate(12.753 20.581)" fill="#fff"/>
            <g id="Group_10078" data-name="Group 10078" transform="translate(79.667 246.726)" opacity="0.42" style="mix-blend-mode: multiply;isolation: isolate">
              <g id="Group_10077" data-name="Group 10077">
                <g id="Group_10076" data-name="Group 10076" clip-path="url(#clip-path-7)">
                  <path id="Path_23590" data-name="Path 23590" d="M199.216,355.367l-94.769-2.194c-.4-23.553.5-78.684-5.448-103.384,0,0-3.624-28.791-13.879-26.025L72.476,306.449l-.284,89.287,9.975-15.645c7.526,9.911,28.872,22.871,41.153,21.657,64.745-6.4,96.54-28.693,96.54-28.693Z" transform="translate(-72.192 -223.576)" fill="#707070"/>
                </g>
              </g>
            </g>
            <path id="Path_23591" data-name="Path 23591" d="M87.728,221.6c1.3.754,1.665,2.149,2.147,3.346a33.556,33.556,0,0,1,1.016,3.8c.469,2.566.706,5.141.919,7.717a76.69,76.69,0,0,1,.137,7.717c-.026,2.57-.1,5.134-.235,7.692-.2,2.557-.478,5.1-.749,7.643s-.5,5.09-.983,7.607c-.431,2.523-.831,5.047-1.332,7.555-.6,2.5-1.076,5.008-1.784,7.486l-.213-.028c.571-5.06,1.206-10.113,1.672-15.183q.78-7.6,1.25-15.219c.386-5.076.561-10.165.566-15.251-.034-2.541-.1-5.086-.376-7.611a32.31,32.31,0,0,0-.579-3.758,13.469,13.469,0,0,0-.543-1.81,3.082,3.082,0,0,0-.963-1.491Z" transform="translate(8.972 22.945)" fill="#adadad"/>
            <path id="Path_23592" data-name="Path 23592" d="M100.038,296.979l.334-5.125c-.138,1.662-.244,3.382-.334,5.125" transform="translate(10.358 30.22)" fill="#adadad"/>
            <path id="Path_23593" data-name="Path 23593" d="M100.43,313.961c-1.28-12.576,6.658-40.85-.319-69.837,0,0,9.294-32.289-17.127-24.262-7.609,2.312-18.332,39.352-19.606,54.063l-2.653,38.709c-1.277,10.048,1,14.1,1.992,24.183" transform="translate(6.248 22.633)" fill="#fff"/>
            <path id="Path_23594" data-name="Path 23594" d="M62.495,327.867l5.863,53.6c.494,2.942,2.727,7.725,5.71,7.806l43.573-2.018s-14.764-56.027-17.434-82.243" transform="translate(6.471 31.582)" fill="#fcbc76"/>
            <path id="Path_23595" data-name="Path 23595" d="M84.208,368.073l14.641-32.752,99.04,2.292.822,32.613s-121.48,33.266-114.5-2.153" transform="translate(8.689 34.72)" fill="#fcbc76"/>
            <path id="Path_23596" data-name="Path 23596" d="M125.815,336.073l-9.858-1.239s75.131,37.633,79.968,35.433c10.089-4.59,20.017-10.417,20.017-10.417L194.57,337.665Z" transform="translate(12.007 34.67)" fill="#e3923c"/>
            <path id="Path_23597" data-name="Path 23597" d="M126.79,321.018a114.271,114.271,0,0,0-11.968.779c-3.332.618-12.95,15.141-12.95,15.141l19.334.513Z" transform="translate(10.548 33.239)" fill="#fcbc76"/>
            <path id="Path_23598" data-name="Path 23598" d="M234.048,350.665l-5.673-31.321-103.1,1.847-8.761,15.975s123.768,46.941,117.536,13.5" transform="translate(12.064 33.066)" fill="#fcbc76"/>
            <path id="Path_23599" data-name="Path 23599" d="M107.827,301.038s-34.492-12.276-55.263,10.975L56.878,332.8l2.312.455a79.238,79.238,0,0,0,50.177-6.614Z" transform="translate(5.443 30.835)" fill="#fff"/>
            <path id="Path_23600" data-name="Path 23600" d="M102.661,307.06s-7.9,5.568-20.975,7.384-26.674-.336-25.23-3.19,1.9-1.7,1.9-1.7l1.376,3.458s27.065,1.874,40.418-5.941l.041-4.647s2.215.539,2.466,4.639" transform="translate(5.835 31.314)" fill="#adadad"/>
            <path id="Path_23601" data-name="Path 23601" d="M201.388,256.454a127.36,127.36,0,0,1,3.2,13.265c.471,2.24.818,4.539,1.227,6.807.364,2.291.692,4.6,1.035,6.9.284,2.327.595,4.641.855,6.979.225,2.355.507,4.683.669,7.067.385,4.739.654,9.531.593,14.477l-.2.092-3.89-27.7-3.694-27.792Z" transform="translate(20.832 26.554)" fill="#adadad"/>
            <path id="Path_23602" data-name="Path 23602" d="M183.336,321.439s21.492-15.211,35.014-15.462l15.027,11.447-1.84,22.176-15.9-16.712Z" transform="translate(18.983 31.682)" fill="#fcbc76"/>
            <path id="Path_23603" data-name="Path 23603" d="M90.443,217.979a47.314,47.314,0,0,1,5.523,10.053,78.058,78.058,0,0,1,3.582,10.87,76.072,76.072,0,0,1,1.9,11.275c.183,1.9.256,3.807.353,5.705-.044,1.917-.043,3.822-.234,5.733l-.213.02c-.414-3.741-.882-7.477-1.548-11.18-.611-3.713-1.451-7.384-2.338-11.037s-1.923-7.273-3.1-10.846a93.629,93.629,0,0,0-4.111-10.5Z" transform="translate(9.345 22.57)" fill="#adadad"/>
            <path id="Path_23604" data-name="Path 23604" d="M80.9,226.152l-.755,23.114c-.216,7.689-.5,15.37-.434,23.048-.127,7.672.054,15.347.575,22.957a95.382,95.382,0,0,0,1.34,11.3A26.788,26.788,0,0,0,85.254,316.9l-.094.13c-2.231-2.766-3.389-6.527-4.242-10.216a94.206,94.206,0,0,1-1.709-11.4c-.736-7.68-.912-15.418-.895-23.134.043-7.72.324-15.432.745-23.127s.977-15.377,1.706-23.033Z" transform="translate(8.109 23.414)" fill="#adadad"/>
            <path id="Path_23605" data-name="Path 23605" d="M122.044,161.03s5.314-1.584,7.237,4.3" transform="translate(12.637 16.654)" fill="none" stroke="#e3923c" stroke-linecap="round" stroke-miterlimit="10" stroke-width="1"/>
            <line id="Line_1689" data-name="Line 1689" y1="3.166" x2="2.149" transform="translate(137.338 178.533)" fill="none" stroke="#e3923c" stroke-linecap="round" stroke-miterlimit="10" stroke-width="1"/>
            <path id="Path_23606" data-name="Path 23606" d="M196.149,241.522C190.29,216.265,170.6,209,170.4,208.922l-1.044-1.8c.284.054,22.013,8.2,28.024,34.114Z" transform="translate(17.536 21.446)" fill="#3763a6"/>
            <path id="Path_23607" data-name="Path 23607" d="M194.357,260.615a11.6,11.6,0,0,1-10.03-12.589,11.658,11.658,0,0,1,6.62-9.4.633.633,0,0,1,.7,1.038,10.323,10.323,0,0,0,6.017,17.893h0a10.306,10.306,0,0,0,5.359-.946.633.633,0,0,1,.7,1.04,11.619,11.619,0,0,1-8.929,3.016c-.145-.013-.29-.03-.434-.049" transform="translate(19.08 24.702)" fill="#c9c9c9"/>
            <path id="Path_23608" data-name="Path 23608" d="M194.357,260.615a11.6,11.6,0,0,1-10.03-12.589,11.658,11.658,0,0,1,6.62-9.4.633.633,0,0,1,.7,1.038,10.323,10.323,0,0,0,6.017,17.893h0a10.306,10.306,0,0,0,5.359-.946.633.633,0,0,1,.7,1.04,11.619,11.619,0,0,1-8.929,3.016c-.145-.013-.29-.03-.434-.049" transform="translate(19.08 24.702)" fill="#264473"/>
            <path id="Path_23609" data-name="Path 23609" d="M195.776,259.867a11.6,11.6,0,1,1,.429.049c-.143-.013-.287-.03-.429-.049" transform="translate(19.227 24.515)" fill="#3763a6"/>
            <path id="Path_23610" data-name="Path 23610" d="M195.89,256.514a8.49,8.49,0,1,1,.315.036q-.157-.015-.315-.036" transform="translate(19.517 24.805)" fill="#264473"/>
            <path id="Path_23611" data-name="Path 23611" d="M97.16,324.916l-6.6-.631a9.612,9.612,0,0,1-8.642-10.592l5.811-54.13a11.331,11.331,0,0,1,21.335-3l20.746,50.969a9.608,9.608,0,0,1-6.5,12.927l-4.757,1.227-.316-1.226,4.757-1.226a8.342,8.342,0,0,0,5.647-11.225l-20.728-50.93a10.068,10.068,0,0,0-18.929,2.658l-5.8,54.086a8.341,8.341,0,0,0,7.5,9.2l6.6.63Z" transform="translate(8.476 25.907)" fill="#3763a6"/>
            <path id="Path_23612" data-name="Path 23612" d="M112.569,315.094a3,3,0,1,1,3.221,2.768,3,3,0,0,1-3.221-2.768" transform="translate(11.655 32.291)" fill="#3763a6"/>
            <path id="Path_23613" data-name="Path 23613" d="M93.161,317.684a3,3,0,1,1,3.221,2.768,3,3,0,0,1-3.221-2.768" transform="translate(9.645 32.56)" fill="#3763a6"/>
            <path id="Path_23614" data-name="Path 23614" d="M87.31,268.843l-1.1-.632c3.607-6.247,7.817-9.586,12.514-9.929,7.527-.536,13.475,6.83,13.724,7.144l-.993.786c-.056-.072-5.777-7.176-12.646-6.668-4.249.312-8.12,3.44-11.5,9.3" transform="translate(8.927 26.74)" fill="#3763a6"/>
            <path id="Path_23615" data-name="Path 23615" d="M94.394,255.549c-.049-.415-4.165-41.553,33.179-49.787l-.6,1.534C90.735,215.287,95.6,255,95.651,255.4Z" transform="translate(9.758 21.305)" fill="#3763a6"/>
            <path id="Path_23616" data-name="Path 23616" d="M147.591,156.473c-.026,1.339-.673,2.411-1.445,2.4s-1.374-1.113-1.347-2.452.674-2.41,1.445-2.395,1.374,1.112,1.347,2.451" transform="translate(14.993 15.948)" fill="#1a1a1a"/>
            <path id="Path_23617" data-name="Path 23617" d="M170.9,155.016c-.026,1.339-.673,2.41-1.445,2.395s-1.374-1.112-1.347-2.451.674-2.41,1.445-2.395,1.374,1.112,1.347,2.451" transform="translate(17.406 15.797)" fill="#1a1a1a"/>
            <path id="Path_23618" data-name="Path 23618" d="M160.507,151.345s2.976,8.691,4.644,14.645-8.573,4.882-8.573,4.882" transform="translate(16.212 15.671)" fill="none" stroke="#e3923c" stroke-linecap="round" stroke-miterlimit="10" stroke-width="1"/>
            <path id="Path_23619" data-name="Path 23619" d="M146.024,171.773s3.845,9.5,13.345,6.786" transform="translate(15.12 17.786)" fill="none" stroke="#e3923c" stroke-linecap="round" stroke-miterlimit="10" stroke-width="1"/>
            <path id="Path_23620" data-name="Path 23620" d="M102.6,335.392s-7.092-.384-11.179,8.58c0,0,8.636-6.729,11.179-8.58" transform="translate(9.466 34.727)" fill="#e3923c"/>
            <path id="Path_23621" data-name="Path 23621" d="M183.336,319.988l33.265,1.447,15.778,17.23L210.725,324.12Z" transform="translate(18.983 33.133)" fill="#e3923c"/>
            <path id="Path_23622" data-name="Path 23622" d="M208.082,307.365l8.719-2.223,13.625,12.245-13.6-10.7Z" transform="translate(21.546 31.595)" fill="#e3923c"/>
            <path id="Path_23623" data-name="Path 23623" d="M217.984,312.319a21.145,21.145,0,0,1,3.392,1.923c1.081.705,2.11,1.479,3.162,2.223,1.005.8,2.037,1.574,3.016,2.413s1.95,1.687,2.856,2.622l-.033.043-6.17-4.638-3.086-2.317c-1.035-.749-2.063-1.568-3.136-2.214Z" transform="translate(22.571 32.339)" fill="#e3923c"/>
            <path id="Path_23624" data-name="Path 23624" d="M218.665,317.56a21.145,21.145,0,0,1,3.392,1.923c1.081.705,2.11,1.479,3.162,2.223,1.005.806,2.037,1.575,3.016,2.413s1.95,1.687,2.856,2.622l-.033.044-6.17-4.639-3.086-2.317c-1.035-.749-2.064-1.568-3.136-2.214Z" transform="translate(22.641 32.881)" fill="#e3923c"/>
            <path id="Path_23625" data-name="Path 23625" d="M219.008,323.507a21.149,21.149,0,0,1,3.392,1.923c1.081.705,2.11,1.479,3.162,2.223,1.005.8,2.037,1.575,3.016,2.413s1.95,1.687,2.856,2.622l-.033.044-6.17-4.639-3.086-2.317c-1.035-.749-2.063-1.568-3.136-2.214Z" transform="translate(22.677 33.497)" fill="#e3923c"/>
            <path id="Path_23626" data-name="Path 23626" d="M138.869,159.253c-.013-.183-.02-.367-.021-.553a8.648,8.648,0,1,1,.021.553" transform="translate(14.377 15.53)" fill="none" stroke="#fff" stroke-linecap="round" stroke-miterlimit="10" stroke-width="1"/>
            <path id="Path_23627" data-name="Path 23627" d="M181.4,156.283a8.656,8.656,0,1,1-8.715-8.6A8.656,8.656,0,0,1,181.4,156.283Z" transform="translate(16.991 15.292)" fill="none" stroke="#fff" stroke-linecap="round" stroke-miterlimit="10" stroke-width="1"/>
            <path id="Path_23628" data-name="Path 23628" d="M154.478,156.359s5.541-5.35,10.609-.591" transform="translate(15.995 15.925)" fill="none" stroke="#fff" stroke-linecap="round" stroke-miterlimit="10" stroke-width="1"/>
            <line id="Line_1690" data-name="Line 1690" x2="11.707" y2="2.757" transform="translate(141.518 171.472)" fill="none" stroke="#fff" stroke-linecap="round" stroke-miterlimit="10" stroke-width="1"/>
            <path id="Path_23629" data-name="Path 23629" d="M167.614,144.815s2.9-3.408,7.422.255" transform="translate(17.355 14.845)" fill="none" stroke="#1a1a1a" stroke-linecap="round" stroke-miterlimit="10" stroke-width="1"/>
            <path id="Path_23630" data-name="Path 23630" d="M140.547,147.489s3.412-3.783,10.491-.8" transform="translate(14.553 15.07)" fill="none" stroke="#1a1a1a" stroke-linecap="round" stroke-miterlimit="10" stroke-width="1"/>
            <path id="Path_23631" data-name="Path 23631" d="M143.408,280.453l-22.146,2.074.013-8.271,22.146-2.074Z" transform="translate(12.556 28.183)" fill="#3763a6"/>
            <rect id="Rectangle_2404" data-name="Rectangle 2404" width="101.305" height="62.09" transform="translate(13.774 66.642)" fill="#4a87e8"/>
            <path id="Path_23632" data-name="Path 23632" d="M70.721,111.121l20.645,25.23v-27.6Z" transform="translate(7.323 11.261)" fill="#4a87e8"/>
            <line id="Line_1691" data-name="Line 1691" x2="39.728" transform="translate(27.282 81.503)" fill="none" stroke="#fff" stroke-miterlimit="10" stroke-width="1"/>
            <line id="Line_1692" data-name="Line 1692" x2="74.291" transform="translate(27.282 90.905)" fill="none" stroke="#fff" stroke-miterlimit="10" stroke-width="1"/>
            <line id="Line_1693" data-name="Line 1693" x2="74.291" transform="translate(27.282 100.307)" fill="none" stroke="#fff" stroke-miterlimit="10" stroke-width="1"/>
            <line id="Line_1694" data-name="Line 1694" x2="74.291" transform="translate(27.282 109.709)" fill="none" stroke="#fff" stroke-miterlimit="10" stroke-width="1"/>
          </g>
        </g>
      </g>
    </g>
  </g>
</svg>
